<?xml version="1.0" encoding="UTF-8" standalone="no"?>
<!-- Created with Inkscape (http://www.inkscape.org/) -->

<svg
   xmlns:dc="http://purl.org/dc/elements/1.1/"
   xmlns:cc="http://creativecommons.org/ns#"
   xmlns:rdf="http://www.w3.org/1999/02/22-rdf-syntax-ns#"
   xmlns:svg="http://www.w3.org/2000/svg"
   xmlns="http://www.w3.org/2000/svg"
   xmlns:sodipodi="http://sodipodi.sourceforge.net/DTD/sodipodi-0.dtd"
   xmlns:inkscape="http://www.inkscape.org/namespaces/inkscape"
   width="91.867004mm"
   height="144.99309mm"
   viewBox="0 0 91.867005 144.99308"
   version="1.1"
   id="svg5463"
   style="enable-background:new"
   inkscape:version="0.92.3 (2405546, 2018-03-11)"
   sodipodi:docname="HOME.svg">
  <defs
     id="defs5457" />
  <sodipodi:namedview
     id="base"
     pagecolor="#ffffff"
     bordercolor="#666666"
     borderopacity="1.0"
     inkscape:pageopacity="0.0"
     inkscape:pageshadow="2"
     inkscape:zoom="0.98994949"
     inkscape:cx="206.13992"
     inkscape:cy="365.92319"
     inkscape:document-units="mm"
     inkscape:current-layer="g6363"
     showgrid="false"
     fit-margin-top="0"
     fit-margin-left="0"
     fit-margin-right="0"
     fit-margin-bottom="0"
     units="mm"
     inkscape:window-width="1317"
     inkscape:window-height="713"
     inkscape:window-x="0"
     inkscape:window-y="27"
     inkscape:window-maximized="1" />
  <metadata
     id="metadata5460">
    <rdf:RDF>
      <cc:Work
         rdf:about="">
        <dc:format>image/svg+xml</dc:format>
        <dc:type
           rdf:resource="http://purl.org/dc/dcmitype/StillImage" />
        <dc:title></dc:title>
      </cc:Work>
    </rdf:RDF>
  </metadata>
  <g
     inkscape:label="Capa 1"
     inkscape:groupmode="layer"
     id="layer1"
     transform="translate(-43.448473,-21.462082)">
    <g
       id="g6363"
       transform="translate(-91.78199,-95.256659)">
      <rect
         style="fill:#f8f8f8;fill-opacity:1;stroke:none;stroke-width:0.37787467;stroke-miterlimit:4;stroke-dasharray:none;stroke-opacity:1"
         id="rect8401"
         width="91.861374"
         height="144.99309"
         x="135.23328"
         y="116.71874" />
      <text
         id="text8407"
         y="130.60803"
         x="169.87505"
         style="font-style:normal;font-variant:normal;font-weight:500;font-stretch:normal;font-size:3.88055563px;line-height:1.25;font-family:Ubuntu;-inkscape-font-specification:'Ubuntu, Medium';font-variant-ligatures:normal;font-variant-caps:normal;font-variant-numeric:normal;font-feature-settings:normal;text-align:start;letter-spacing:0px;word-spacing:0px;writing-mode:lr-tb;text-anchor:start;fill:#434059;fill-opacity:1;stroke:none;stroke-width:0.26458332"
         xml:space="preserve"><tspan
           style="font-style:normal;font-variant:normal;font-weight:500;font-stretch:normal;font-size:3.88055563px;font-family:Ubuntu;-inkscape-font-specification:'Ubuntu, Medium';font-variant-ligatures:normal;font-variant-caps:normal;font-variant-numeric:normal;font-feature-settings:normal;text-align:start;writing-mode:lr-tb;text-anchor:start;fill:#434059;fill-opacity:1;stroke-width:0.26458332"
           y="130.60803"
           x="169.87505"
           id="tspan8405"
           sodipodi:role="line">MIS CURSOS</tspan></text>
      <g
         transform="matrix(0.34365897,0,0,0.34365897,137.33293,125.07002)"
         id="g8413">
        <path
           inkscape:label="path4876"
           style="fill:none"
           inkscape:connector-curvature="0"
           d="M 0,0 H 24 V 24 H 0 Z"
           id="path8409" />
        <path
           style="fill:#36334d;fill-opacity:1"
           inkscape:connector-curvature="0"
           d="M 3,18 H 21 V 16 H 3 Z M 3,13 H 21 V 11 H 3 Z M 3,6 V 8 H 21 V 6 Z"
           id="path8411" />
      </g>
      <rect
         y="134.3786"
         x="135.23047"
         height="10.514192"
         width="91.866997"
         id="rect8427"
         style="fill:#454165;fill-opacity:1;stroke:none;stroke-width:0.44028974;stroke-miterlimit:4;stroke-dasharray:none;stroke-opacity:1" />
      <g
         id="g8851"
         class="actionable"
         target="ALUMNOS">
        <text
           id="text8419"
           y="162.2887"
           x="149.46486"
           style="font-style:normal;font-variant:normal;font-weight:normal;font-stretch:normal;font-size:5.64444447px;line-height:1.25;font-family:'Ubuntu Condensed';-inkscape-font-specification:'Ubuntu Condensed, Normal';font-variant-ligatures:normal;font-variant-caps:normal;font-variant-numeric:normal;font-feature-settings:normal;text-align:start;letter-spacing:0px;word-spacing:0px;writing-mode:lr-tb;text-anchor:start;fill:#36334d;fill-opacity:1;stroke:none;stroke-width:0.26458332"
           xml:space="preserve"><tspan
             style="font-style:normal;font-variant:normal;font-weight:normal;font-stretch:normal;font-size:5.64444447px;font-family:'Ubuntu Condensed';-inkscape-font-specification:'Ubuntu Condensed, Normal';font-variant-ligatures:normal;font-variant-caps:normal;font-variant-numeric:normal;font-feature-settings:normal;text-align:start;writing-mode:lr-tb;text-anchor:start;fill:#36334d;fill-opacity:1;stroke-width:0.26458332"
             y="162.2887"
             x="149.46486"
             id="tspan8417"
             sodipodi:role="line">1° B  -  TARDE  <tspan
   style="font-size:4.93888903px"
   id="tspan8415">//</tspan>  AULA 10 </tspan></text>
        <text
           xml:space="preserve"
           style="font-style:normal;font-variant:normal;font-weight:normal;font-stretch:normal;font-size:5.64444447px;line-height:1.25;font-family:'Ubuntu Condensed';-inkscape-font-specification:'Ubuntu Condensed, Normal';font-variant-ligatures:normal;font-variant-caps:normal;font-variant-numeric:normal;font-feature-settings:normal;text-align:start;letter-spacing:0px;word-spacing:0px;writing-mode:lr-tb;text-anchor:start;fill:#36334d;fill-opacity:1;stroke:none;stroke-width:0.26458332"
           x="149.46486"
           y="177.77939"
           id="text8425"><tspan
             sodipodi:role="line"
             id="tspan8423"
             x="149.46486"
             y="177.77939"
             style="font-style:normal;font-variant:normal;font-weight:normal;font-stretch:normal;font-size:5.64444447px;font-family:'Ubuntu Condensed';-inkscape-font-specification:'Ubuntu Condensed, Normal';font-variant-ligatures:normal;font-variant-caps:normal;font-variant-numeric:normal;font-feature-settings:normal;text-align:start;writing-mode:lr-tb;text-anchor:start;fill:#36334d;fill-opacity:1;stroke-width:0.26458332">2° A  -  TARDE  <tspan
   style="font-size:4.93888903px"
   id="tspan8421">//</tspan>  AULA 7</tspan></text>
        <path
           style="fill:none;stroke:#b4b0c6;stroke-width:0.26634175px;stroke-linecap:butt;stroke-linejoin:miter;stroke-opacity:1"
           d="m 221.14924,168.3573 h -79.97055 v 0"
           id="path8433"
           inkscape:connector-curvature="0" />
        <path
           inkscape:connector-curvature="0"
           id="path8435"
           d="m 221.14924,152.8666 h -79.97055 v 0"
           style="fill:none;stroke:#b4b0c6;stroke-width:0.26634175px;stroke-linecap:butt;stroke-linejoin:miter;stroke-opacity:1" />
        <path
           inkscape:connector-curvature="0"
           id="path8437"
           d="m 221.14924,183.84797 h -79.97055 v 0"
           style="fill:none;stroke:#b4b0c6;stroke-width:0.26634175px;stroke-linecap:butt;stroke-linejoin:miter;stroke-opacity:1" />
        <text
           id="text8463"
           y="193.27008"
           x="149.46486"
           style="font-style:normal;font-variant:normal;font-weight:normal;font-stretch:normal;font-size:5.64444447px;line-height:1.25;font-family:'Ubuntu Condensed';-inkscape-font-specification:'Ubuntu Condensed, Normal';font-variant-ligatures:normal;font-variant-caps:normal;font-variant-numeric:normal;font-feature-settings:normal;text-align:start;letter-spacing:0px;word-spacing:0px;writing-mode:lr-tb;text-anchor:start;fill:#36334d;fill-opacity:1;stroke:none;stroke-width:0.26458332"
           xml:space="preserve"><tspan
             style="font-style:normal;font-variant:normal;font-weight:normal;font-stretch:normal;font-size:5.64444447px;font-family:'Ubuntu Condensed';-inkscape-font-specification:'Ubuntu Condensed, Normal';font-variant-ligatures:normal;font-variant-caps:normal;font-variant-numeric:normal;font-feature-settings:normal;text-align:start;writing-mode:lr-tb;text-anchor:start;fill:#36334d;fill-opacity:1;stroke-width:0.26458332"
             y="193.27008"
             x="149.46486"
             id="tspan8461"
             sodipodi:role="line">2° C  -  TARDE  <tspan
   id="tspan8459"
   style="font-size:4.93888903px">//</tspan>  AULA 4</tspan></text>
        <path
           style="fill:none;stroke:#b4b0c6;stroke-width:0.26634175px;stroke-linecap:butt;stroke-linejoin:miter;stroke-opacity:1"
           d="m 221.14924,199.33865 h -79.97055 v 0"
           id="path8465"
           inkscape:connector-curvature="0" />
        <text
           id="text8471"
           y="208.76074"
           x="149.46486"
           style="font-style:normal;font-variant:normal;font-weight:normal;font-stretch:normal;font-size:5.64444447px;line-height:1.25;font-family:'Ubuntu Condensed';-inkscape-font-specification:'Ubuntu Condensed, Normal';font-variant-ligatures:normal;font-variant-caps:normal;font-variant-numeric:normal;font-feature-settings:normal;text-align:start;letter-spacing:0px;word-spacing:0px;writing-mode:lr-tb;text-anchor:start;fill:#36334d;fill-opacity:1;stroke:none;stroke-width:0.26458332"
           xml:space="preserve"><tspan
             style="font-style:normal;font-variant:normal;font-weight:normal;font-stretch:normal;font-size:5.64444447px;font-family:'Ubuntu Condensed';-inkscape-font-specification:'Ubuntu Condensed, Normal';font-variant-ligatures:normal;font-variant-caps:normal;font-variant-numeric:normal;font-feature-settings:normal;text-align:start;writing-mode:lr-tb;text-anchor:start;fill:#36334d;fill-opacity:1;stroke-width:0.26458332"
             y="208.76074"
             x="149.46486"
             id="tspan8469"
             sodipodi:role="line">4° B  -  TARDE  <tspan
   id="tspan8467"
   style="font-size:4.93888903px">//</tspan>  AULA 5</tspan></text>
        <path
           style="fill:none;stroke:#b4b0c6;stroke-width:0.26634175px;stroke-linecap:butt;stroke-linejoin:miter;stroke-opacity:1"
           d="m 221.14924,214.82933 h -79.97055 v 0"
           id="path8473"
           inkscape:connector-curvature="0" />
        <text
           xml:space="preserve"
           style="font-style:normal;font-variant:normal;font-weight:normal;font-stretch:normal;font-size:5.64444447px;line-height:1.25;font-family:'Ubuntu Condensed';-inkscape-font-specification:'Ubuntu Condensed, Normal';font-variant-ligatures:normal;font-variant-caps:normal;font-variant-numeric:normal;font-feature-settings:normal;text-align:start;letter-spacing:0px;word-spacing:0px;writing-mode:lr-tb;text-anchor:start;fill:#36334d;fill-opacity:1;stroke:none;stroke-width:0.26458332"
           x="149.46486"
           y="224.25143"
           id="text8479"><tspan
             sodipodi:role="line"
             id="tspan8477"
             x="149.46486"
             y="224.25143"
             style="font-style:normal;font-variant:normal;font-weight:normal;font-stretch:normal;font-size:5.64444447px;font-family:'Ubuntu Condensed';-inkscape-font-specification:'Ubuntu Condensed, Normal';font-variant-ligatures:normal;font-variant-caps:normal;font-variant-numeric:normal;font-feature-settings:normal;text-align:start;writing-mode:lr-tb;text-anchor:start;fill:#36334d;fill-opacity:1;stroke-width:0.26458332">5° A  -  TARDE  <tspan
   style="font-size:4.93888903px"
   id="tspan8475">//</tspan>  AULA 8</tspan></text>
        <path
           inkscape:connector-curvature="0"
           id="path8481"
           d="m 221.14924,230.32001 h -79.97055 v 0"
           style="fill:none;stroke:#b4b0c6;stroke-width:0.26634175px;stroke-linecap:butt;stroke-linejoin:miter;stroke-opacity:1" />
      </g>
      <g
         id="g1999"
         transform="matrix(0.26458333,0,0,0.26458333,215.69222,126.11789)">
        <path
           id="path1985"
           d="M 0,0 H 24 V 24 H 0 Z"
           inkscape:connector-curvature="0"
           style="fill:none" />
        <path
           id="path1987"
           d="m 12,22 c 1.1,0 2,-0.9 2,-2 h -4 c 0,1.1 0.9,2 2,2 z m 6,-6 V 11 C 18,7.93 16.37,5.36 13.5,4.68 V 4 C 13.5,3.17 12.83,2.5 12,2.5 11.17,2.5 10.5,3.17 10.5,4 V 4.68 C 7.64,5.36 6,7.92 6,11 v 5 l -2,2 v 1 h 16 v -1 z m -2,1 H 8 v -6 c 0,-2.48 1.51,-4.5 4,-4.5 2.49,0 4,2.02 4,4.5 z"
           inkscape:connector-curvature="0"
           style="fill:#454165;fill-opacity:1" />
      </g>
      <g
         transform="translate(66.144178,59.349108)"
         id="g3272">
        <rect
           style="fill:#454165;fill-opacity:1;stroke:#454165;stroke-width:0.67550904;stroke-miterlimit:4;stroke-dasharray:none;stroke-opacity:1"
           id="rect3248"
           width="91.19149"
           height="6.7954907"
           x="69.424042"
           y="57.72546" />
        <path
           style="fill:#8a88a1;fill-opacity:1;stroke-width:0.08858511"
           d="m 160.95071,57.868455 c -0.11184,-0.0988 -0.45,-0.25812 -0.83006,-0.48236 -1.0012,0 -2.48956,0.005 -2.54433,0.005 -0.0523,0 0.007,-0.007 0.007,1.31633 v 2.40666 l 1.90458,0.99514 c 1.04751,0.54733 1.40354,0.71517 1.46444,0.71596 0,-1.35866 -0.002,-3.30477 -0.002,-4.95683 z"
           id="path3250"
           inkscape:connector-curvature="0"
           sodipodi:nodetypes="ccsccccc" />
        <path
           style="fill:#6f6d8d;fill-opacity:1;stroke-width:0.08858511"
           d="m 152.49496,63.985675 c -0.54466,-0.58364 -1.62901,-0.97521 -2.4272,-1.31053 -0.1437,-0.0431 -0.0867,0.79311 -0.0788,2.18266 0.65479,0 2.21457,6.6e-4 2.55898,6.6e-4 -0.005,-0.34425 -0.0288,-0.72794 -0.053,-0.87282 z m -4.06061,-6.59607 c 5.6e-4,0.39946 0.001,0.90753 0.0326,1.43367 0.57055,0.42498 2.33527,1.24493 2.2916,1.00823 7.4e-4,-1.13044 -9.2e-4,-1.49033 -0.0207,-2.44557 -0.63286,0 -1.62519,0.004 -2.30354,0.004 z"
           id="path3252"
           inkscape:connector-curvature="0"
           sodipodi:nodetypes="cccccccccccc" />
        <path
           style="opacity:1;fill:#6f6d8d;fill-opacity:1;stroke-width:0.08858512"
           d="m 156.56439,62.336055 -0.0237,-2.39179 c -1.15754,-0.61593 -2.40884,-1.24187 -3.56874,-1.69495 -0.0856,-0.005 -0.11074,0.70922 -0.11074,2.31022 0,1.54979 0.0279,2.09349 0.11074,2.16066 0.14152,0.11472 3.47646,1.7621 3.5563,1.7621 0.0329,0 0.0492,-0.96581 0.0362,-2.14624 z"
           id="path3254"
           inkscape:connector-curvature="0"
           sodipodi:nodetypes="cccscscc"
           inkscape:export-filename="/home/gonzalo/path861.png"
           inkscape:export-xdpi="96"
           inkscape:export-ydpi="96" />
        <path
           inkscape:export-ydpi="96"
           inkscape:export-xdpi="96"
           inkscape:export-filename="/home/gonzalo/path861.png"
           sodipodi:nodetypes="ccsccsccccccccccccccccscsccc"
           inkscape:connector-curvature="0"
           id="path3256"
           d="m 138.00727,63.356375 c 0,-0.8096 -0.0347,-1.22273 -0.11073,-1.31867 -0.0609,-0.0768 -0.52337,-0.34935 -1.02772,-0.60557 -0.68252,-0.34674 -0.9346,-0.43734 -0.98591,-0.35433 -0.0537,0.0868 -0.0619,1.81514 -0.0113,2.36595 0.0103,0.11188 1.82133,1.09159 2.01785,1.09159 0.0921,0 0.11778,-0.2572 0.11778,-1.17897 z m 4.3128,1.50014 c -0.81324,-0.45168 -0.86029,-0.41689 -0.95249,-0.32468 -0.0404,0.0404 -0.0322,0.13893 -0.048,0.32618 0.34359,0 0.62818,-0.002 1.00046,-0.002 z m 5.91458,4.2e-4 c 0.0312,-1.47633 0.0466,-1.53749 -0.0178,-2.7133 -1.16908,-0.69732 -1.51999,-0.8803 -3.54523,-1.80922 l -0.10066,4.11825 c 0.15131,0.0743 0.0587,0.0378 0.78658,0.40466 1.5958,0 2.19935,-3.9e-4 2.87711,-3.9e-4 z m -6.64005,-3.38785 c 0.0223,-0.0365 0.0188,-0.5956 -0.008,-1.24235 l -0.0481,-1.45703 -0.85089,-0.44039 c -1.28817,-0.66671 -1.35937,-0.74737 -1.35937,0.7359 v 1.5587 l 1.13594,0.4558 c 0.99684,0.4 1.06108,0.50243 1.13001,0.38937 z"
           style="opacity:1;fill:#8a88a1;fill-opacity:1;stroke-width:0.08858512" />
        <path
           inkscape:export-ydpi="96"
           inkscape:export-xdpi="96"
           inkscape:export-filename="/home/gonzalo/path861.png"
           sodipodi:nodetypes="ccccc"
           inkscape:connector-curvature="0"
           id="path3258"
           d="m 131.99864,63.001045 c -1.16908,-0.69733 -1.48491,-0.8803 -3.51015,-1.80922 l -0.10066,3.66221 c 2.30947,0 2.58565,0.004 3.69034,0.004 0.0305,-1.50213 0.0543,-0.50452 -0.0795,-1.85704 z"
           style="opacity:1;fill:#6f6d8d;fill-opacity:1;stroke-width:0.08858512" />
        <path
           style="opacity:1;fill:#6f6d8d;fill-opacity:1;stroke-width:0.08858512"
           d="m 129.71071,58.170265 -0.0237,-0.7819 c -1.11352,0 -2.4019,-7.1e-4 -3.67948,-7.1e-4 0,1.5498 0.0279,1.09958 0.11074,1.16675 0.14152,0.11473 3.47646,1.76211 3.5563,1.76211 0.0329,0 0.0492,-0.96581 0.0362,-2.14624 z"
           id="path3260"
           inkscape:connector-curvature="0"
           sodipodi:nodetypes="ccccscc"
           inkscape:export-filename="/home/gonzalo/path861.png"
           inkscape:export-xdpi="96"
           inkscape:export-ydpi="96" />
        <path
           sodipodi:nodetypes="ccccccc"
           inkscape:connector-curvature="0"
           id="path3262"
           d="m 135.64618,59.362625 c 0.0865,-0.0865 0.052,-1.74607 0.0518,-1.97459 -1.00416,0 -2.25139,0.0154 -2.69245,0.0154 0,0.30419 -0.0276,0.6275 0.0108,0.77081 0.0449,0.16771 0.36481,0.28945 1.15165,0.69441 1.05352,0.5422 1.33597,0.63656 1.47857,0.49398 z"
           style="fill:#6f6d8d;fill-opacity:1;stroke-width:0.10223354" />
        <path
           inkscape:export-ydpi="96"
           inkscape:export-xdpi="96"
           inkscape:export-filename="/home/gonzalo/path861.png"
           sodipodi:nodetypes="ccsccsccccccccccccccccscc"
           inkscape:connector-curvature="0"
           id="path3264"
           d="m 116.07219,60.562615 c 0,-0.80961 -0.0347,-1.22274 -0.11073,-1.31867 -0.0609,-0.0768 -0.52338,-0.34935 -1.02772,-0.60557 -0.68252,-0.34675 -0.93461,-0.43735 -0.98591,-0.35434 -0.0537,0.0868 -0.0619,1.81515 -0.0113,2.36596 0.0103,0.11187 1.82132,1.09159 2.01784,1.09159 0.0921,0 0.11779,-0.2572 0.11779,-1.17897 z m 5.75195,3.65117 -0.0243,-1.43762 -0.62009,-0.34441 c -0.81325,-0.45168 -1.65506,-0.78589 -1.74726,-0.69368 -0.0404,0.0404 -0.0625,0.68936 -0.049,1.4408 l 0.0245,1.36625 0.56242,0.31238 c 0.93448,-9.5e-4 1.28316,-6.8e-4 1.86864,7.9e-4 0.002,-0.20837 -0.008,-0.24923 -0.0149,-0.64348 z m -2.16462,-5.53846 c 0.0223,-0.0365 0.0178,-0.64107 -0.009,-1.28783 -0.60715,0.002 -1.11243,10e-4 -2.07543,1.7e-4 l 0.0165,0.44248 0.9375,0.45581 c 0.96597,0.46965 1.06108,0.50243 1.13001,0.38937 z"
           style="opacity:1;fill:#6f6d8d;fill-opacity:1;stroke-width:0.08858512" />
        <path
           style="fill:#e2e1ed;fill-opacity:1;stroke-width:0.0284925"
           d="m 87.4769,58.664335 c -0.53271,0 -0.61107,0.025 -0.71753,0.22795 -0.056,0.10668 -0.0604,0.16629 -0.0689,0.93316 -0.005,0.45055 -0.0164,0.6415 -0.0251,0.6415 -0.009,0 -0.0969,-0.0398 -0.19605,-0.0887 -0.19359,-0.0953 -0.46894,-0.16565 -0.65301,-0.16637 -0.37469,-0.002 -0.82067,0.18616 -1.10083,0.46357 -0.31386,0.31078 -0.46272,0.66645 -0.46155,1.10211 0.002,0.7442 0.49689,1.36884 1.20618,1.52244 0.10186,0.022 0.24686,0.041 0.32211,0.0424 0.19254,0.004 0.5179,-0.0757 0.71001,-0.17223 0.0897,-0.045 0.16963,-0.0819 0.17791,-0.0819 0.008,0 0.0152,0.0292 0.0152,0.0649 0,0.0357 0.02,0.0935 0.0443,0.12825 0.0396,0.0565 0.069,0.0634 0.27246,0.0634 0.15453,0 0.23868,0.0401 0.28492,-0.0696 l 0.0108,-0.002 1.9e-4,-0.0253 c 0.0554,-0.18631 0.0425,-0.69103 0.0425,-2.02485 0,-1.1343 0.008,-1.90497 0.0174,-1.92976 0.0142,-0.0369 0.0682,-0.045 0.29811,-0.045 0.24853,0 0.28428,-0.007 0.31039,-0.0552 0.0369,-0.0688 0.0381,-0.42848 0.002,-0.48609 -0.0222,-0.0352 -0.10979,-0.0429 -0.49124,-0.0429 z m 10.6235,0.007 c -0.13578,-7e-4 -0.27263,0.0108 -0.29738,0.0356 -0.026,0.026 -0.034,0.54563 -0.034,2.16482 0,1.87812 0.005,2.14396 0.045,2.24342 0.046,0.11503 0.13388,0.19161 0.26586,0.23161 0.12568,0.038 1.09728,0.0321 1.13638,-0.008 0.0474,-0.0473 0.0461,-0.5657 -0.002,-0.62938 -0.0296,-0.0394 -0.0988,-0.049 -0.40585,-0.0554 l -0.37048,-0.008 -0.007,-0.86703 c -0.006,-0.67471 3.5e-4,-0.87232 0.0284,-0.89012 0.0198,-0.0125 0.3081,-0.023 0.64056,-0.0232 0.58622,0 0.60541,-0.002 0.63672,-0.0606 0.0361,-0.0675 0.027,-0.51886 -0.0112,-0.55719 -0.013,-0.0131 -0.308,-0.0301 -0.65541,-0.038 l -0.63159,-0.0142 -0.008,-0.72412 c -0.005,-0.47598 -0.0184,-0.73729 -0.0391,-0.76221 -0.0208,-0.0251 -0.15555,-0.0383 -0.29133,-0.0393 z m -7.84633,1.53892 c -0.25677,0 -0.23526,0.0428 -0.23545,0.73566 -9e-5,0.37163 -0.0135,0.75894 -0.0298,0.86081 -0.0593,0.36858 -0.24976,0.65195 -0.52623,0.78273 -0.12222,0.0577 -0.19606,0.0722 -0.37305,0.0722 -0.35175,0 -0.56012,-0.1373 -0.71183,-0.46888 -0.12829,-0.28037 -0.15487,-0.48246 -0.16161,-1.22836 -0.005,-0.58494 -0.0133,-0.70277 -0.0491,-0.7254 -0.0726,-0.0459 -0.52886,-0.0344 -0.56929,0.0143 -0.0263,0.0318 -0.0319,0.24184 -0.0226,0.86189 -0.01,0.37799 -0.0172,0.73215 0.10315,1.08764 0.11436,0.33726 0.24097,0.54666 0.45312,0.74904 0.18879,0.18006 0.38899,0.29143 0.62738,0.34923 0.23152,0.0561 0.4202,0.0528 0.67335,-0.0119 0.41878,-0.10709 0.75992,-0.35187 0.95572,-0.68562 0.0502,-0.0856 0.12142,-0.19794 0.1583,-0.24955 0.12775,-0.17876 0.16345,-0.43546 0.17847,-1.28572 0.0163,-0.92344 0.0428,-0.85712 -0.34263,-0.85712 -0.0489,0 -0.0912,-7.1e-4 -0.12789,-7.1e-4 z m 2.25699,0.005 c -0.0708,-0.002 -0.13641,0.006 -0.23178,0.0211 -0.24038,0.0386 -0.47616,0.12004 -0.63745,0.22006 -0.15484,0.096 -0.37555,0.35391 -0.49123,0.57406 -0.17938,0.34135 -0.19148,0.42957 -0.19148,1.39473 0,0.79052 0.004,0.864 0.0498,0.89066 0.0655,0.0383 0.4514,0.0393 0.52202,0.002 0.0522,-0.028 0.0552,-0.0669 0.0554,-0.74793 2.8e-4,-0.96439 0.0391,-1.17937 0.2589,-1.42972 0.15601,-0.17768 0.33128,-0.24264 0.65503,-0.24295 0.24945,0 0.28885,0.008 0.45184,0.0888 0.14691,0.0734 0.19773,0.11888 0.28657,0.25633 0.14979,0.23175 0.17095,0.3905 0.17095,1.28699 0,0.72107 0.003,0.76023 0.055,0.78825 0.069,0.0368 0.4856,0.038 0.54327,0.002 0.0365,-0.0232 0.0427,-0.15799 0.042,-0.93262 -8.3e-4,-0.87142 -0.004,-0.91274 -0.0665,-1.09094 -0.21441,-0.60541 -0.60757,-0.94597 -1.20984,-1.04842 -0.11577,-0.0197 -0.19163,-0.0299 -0.26239,-0.0314 z m 3.34957,0.003 c -0.2102,7e-4 -0.50592,0.0694 -0.7078,0.16803 -0.20911,0.10215 -0.50317,0.36581 -0.63231,0.5671 -0.57728,0.89958 -0.0648,2.12105 0.98428,2.34584 0.10914,0.0233 0.25197,0.0435 0.31754,0.0448 0.14586,0.003 0.46794,-0.063 0.62004,-0.12678 0.15729,-0.066 0.43226,-0.2573 0.45495,-0.31645 0.0139,-0.0362 -0.0325,-0.10127 -0.17369,-0.2435 -0.18691,-0.18836 -0.29151,-0.23862 -0.33843,-0.16272 -0.0107,0.0173 -0.0853,0.0619 -0.16563,0.0993 -0.19265,0.0897 -0.54695,0.0964 -0.73969,0.0138 -0.22672,-0.0972 -0.47562,-0.36886 -0.43499,-0.47474 0.0129,-0.0336 0.19835,-0.0401 1.13821,-0.0401 0.99261,0 1.12725,-0.006 1.16056,-0.0454 0.0553,-0.0666 0.047,-0.47311 -0.0137,-0.68124 -0.18242,-0.62462 -0.72821,-1.07564 -1.38482,-1.14426 -0.026,-0.003 -0.0545,-0.005 -0.0845,-0.004 z m -13.40269,0.006 c -0.3839,0.003 -0.77265,0.15224 -1.08288,0.46247 -0.3729,0.3729 -0.53554,0.88977 -0.43369,1.37824 0.1295,0.62105 0.59822,1.11012 1.1851,1.23659 0.24702,0.0532 0.41183,0.0541 0.6523,0.004 0.29347,-0.0617 0.71031,-0.28537 0.75654,-0.40586 0.0211,-0.055 -0.34495,-0.43535 -0.41904,-0.43535 -0.0303,0 -0.089,0.0241 -0.13064,0.0537 -0.22082,0.15687 -0.61769,0.19829 -0.86867,0.0907 -0.22635,-0.097 -0.47568,-0.36863 -0.43517,-0.47419 0.0127,-0.033 0.20897,-0.0413 1.14774,-0.0475 l 1.13252,-0.008 0.0429,-0.0762 c 0.0368,-0.0656 0.0377,-0.11482 0.007,-0.35619 -0.0291,-0.2308 -0.0573,-0.32546 -0.16124,-0.53924 -0.28107,-0.57824 -0.83201,-0.88744 -1.39308,-0.88332 z m 3.33272,0.66841 c 0.13315,-6.9e-4 0.26615,0.0237 0.37213,0.0731 0.18769,0.0874 0.3661,0.26579 0.45348,0.45348 0.0829,0.17803 0.0933,0.47891 0.0236,0.68325 -0.0596,0.17496 -0.26126,0.39572 -0.44523,0.48739 -0.12468,0.0621 -0.18508,0.0733 -0.39119,0.0725 -0.29673,-0.002 -0.47445,-0.0751 -0.65651,-0.27265 -0.17188,-0.18647 -0.23924,-0.35355 -0.23966,-0.59531 -6.6e-4,-0.34831 0.20509,-0.6808 0.51084,-0.82543 0.10613,-0.0503 0.23935,-0.0759 0.3725,-0.0764 z m -3.37431,0.003 c 0.14737,-0.003 0.3076,0.0215 0.40822,0.0686 0.24391,0.1139 0.47108,0.35654 0.43114,0.46063 -0.0137,0.0356 -0.13571,0.042 -0.8007,0.042 -0.74424,0 -0.7844,-0.003 -0.7844,-0.0525 0,-0.13559 0.28706,-0.40813 0.50992,-0.48409 0.0635,-0.0217 0.14739,-0.0329 0.23582,-0.0345 z m 13.41552,0.005 c 0.12049,0.002 0.24266,0.0146 0.31459,0.0399 0.0675,0.0238 0.16606,0.0764 0.21914,0.11691 0.11942,0.0911 0.26348,0.28628 0.26348,0.35693 0,0.0499 -0.0401,0.0527 -0.78439,0.0527 -0.88716,0 -0.87921,0.002 -0.73602,-0.20558 0.0887,-0.12859 0.27409,-0.27335 0.41831,-0.32651 0.0656,-0.0242 0.18439,-0.0356 0.30489,-0.0345 z"
           id="path3266"
           inkscape:connector-curvature="0"
           sodipodi:nodetypes="cccsccsccccsscscccscsccccccscccccccccccccccccccccsccccccccccccsccccccscccccccscccccccccccccccscccscccccccccccsccccccccccccccccccccccccssccccccsscccc" />
        <path
           sodipodi:nodetypes="ccscccscc"
           inkscape:connector-curvature="0"
           id="path3268"
           d="m 125.49885,61.054755 c 0,-1.33634 -0.009,-1.48201 -0.0943,-1.55755 -0.16521,-0.14591 -2.27498,-1.19411 -2.31766,-1.15149 -0.0225,0.0225 -0.041,0.70001 -0.041,1.50558 v 1.46466 l 1.1591,0.60562 c 0.6375,0.3331 1.18943,0.60603 1.22649,0.60651 0.0523,7.3e-4 0.0674,-0.32944 0.0674,-1.47333 z"
           style="fill:#8a88a1;fill-opacity:1;stroke-width:0.05391166" />
        <path
           style="fill:#6f6d8d;fill-opacity:1;stroke-width:0.05391166"
           d="m 160.237,64.856045 c -0.16521,-0.14592 -1.00903,-0.60329 -1.05171,-0.56067 -0.0225,0.0225 -0.041,0.4101 -0.041,0.56086 0.40168,0 0.72756,-1.9e-4 1.09271,-1.9e-4 z"
           id="path3270"
           inkscape:connector-curvature="0"
           sodipodi:nodetypes="cscc" />
      </g>
    </g>
  </g>
</svg>
