<?xml version="1.0" encoding="UTF-8" standalone="no"?>
<!-- Created with Inkscape (http://www.inkscape.org/) -->

<svg
   xmlns:dc="http://purl.org/dc/elements/1.1/"
   xmlns:cc="http://creativecommons.org/ns#"
   xmlns:rdf="http://www.w3.org/1999/02/22-rdf-syntax-ns#"
   xmlns:svg="http://www.w3.org/2000/svg"
   xmlns="http://www.w3.org/2000/svg"
   xmlns:xlink="http://www.w3.org/1999/xlink"
   xmlns:sodipodi="http://sodipodi.sourceforge.net/DTD/sodipodi-0.dtd"
   xmlns:inkscape="http://www.inkscape.org/namespaces/inkscape"
   width="170.54578mm"
   height="138.14827mm"
   viewBox="0 0 170.54578 138.14827"
   version="1.1"
   id="svg1254"
   inkscape:version="0.92.3 (2405546, 2018-03-11)"
   sodipodi:docname="logo.svg">
  <defs
     id="defs1248">
    <linearGradient
       gradientTransform="translate(-171.17022,86.929456)"
       inkscape:collect="always"
       xlink:href="#linearGradient882"
       id="linearGradient893"
       x1="252.78648"
       y1="-24.95373"
       x2="257.13095"
       y2="70.238785"
       gradientUnits="userSpaceOnUse" />
    <linearGradient
       inkscape:collect="always"
       id="linearGradient882">
      <stop
         style="stop-color:#302b59;stop-opacity:1;"
         offset="0"
         id="stop878" />
      <stop
         style="stop-color:#675eb7;stop-opacity:1"
         offset="1"
         id="stop880" />
    </linearGradient>
  </defs>
  <sodipodi:namedview
     id="base"
     pagecolor="#ffffff"
     bordercolor="#666666"
     borderopacity="1.0"
     inkscape:pageopacity="0.0"
     inkscape:pageshadow="2"
     inkscape:zoom="0.35"
     inkscape:cx="-289.13732"
     inkscape:cy="35.353324"
     inkscape:document-units="mm"
     inkscape:current-layer="layer1"
     showgrid="false"
     fit-margin-top="0"
     fit-margin-left="0"
     fit-margin-right="0"
     fit-margin-bottom="0"
     inkscape:window-width="1317"
     inkscape:window-height="713"
     inkscape:window-x="0"
     inkscape:window-y="27"
     inkscape:window-maximized="1" />
  <metadata
     id="metadata1251">
    <rdf:RDF>
      <cc:Work
         rdf:about="">
        <dc:format>image/svg+xml</dc:format>
        <dc:type
           rdf:resource="http://purl.org/dc/dcmitype/StillImage" />
        <dc:title></dc:title>
      </cc:Work>
    </rdf:RDF>
  </metadata>
  <g
     inkscape:label="Capa 1"
     inkscape:groupmode="layer"
     id="layer1"
     transform="translate(-5.441393,-20.038964)">
    <path
       style="opacity:1;fill:url(#linearGradient893);fill-opacity:1;stroke-width:0.26458332"
       d="m 85.960732,157.16824 c -1.348611,-0.55316 -2.529311,-1.08304 -2.623781,-1.17751 -0.0945,-0.0945 -0.380399,-0.17176 -0.635388,-0.17176 -0.255001,0 -0.800701,-0.17545 -1.212681,-0.3899 -0.41197,-0.21446 -1.16576,-0.55753 -1.67508,-0.76237 -0.509331,-0.20484 -3.188229,-1.3309 -5.95313,-2.50234 -2.764891,-1.17144 -6.455831,-2.69141 -8.202081,-3.37771 -1.74625,-0.6863 -3.288109,-1.34932 -3.426359,-1.47337 -0.13824,-0.12406 -0.40743,-0.22556 -0.598191,-0.22556 -0.19076,0 -0.911091,-0.25211 -1.60073,-0.56025 -0.689639,-0.30814 -1.730139,-0.77064 -2.31222,-1.02778 -1.610738,-0.71156 -9.6256,-4.00986 -13.49375,-5.55297 -1.891771,-0.7547 -4.034901,-1.64715 -4.7625,-1.98324 -1.677641,-0.77494 -6.457831,-2.78201 -6.62586,-2.78201 -0.0697,0 -0.631499,-0.22961 -1.24838,-0.51025 -0.61688,-0.28065 -2.07409,-0.88823 -3.23826,-1.35021 -1.16417,-0.46197 -2.47386,-0.99065 -2.91042,-1.17486 -12.32956,-5.2024 -16.80491,-7.05902 -18.20453,-7.55223 -0.69916,-0.24638 -1.3831,-0.55986 -1.51986,-0.69663 -0.19028,-0.19028 -0.33397,-51.942676 -0.25315,-91.175713 0.002,-0.888116 0.14718,-0.895076 1.91189,-0.09156 1.46527,0.667173 3.44712,1.487703 10.32248,4.273734 2.28969,0.927827 4.51619,1.86957 4.94779,2.092759 0.4316,0.223186 0.98485,0.405797 1.22943,0.405797 0.24459,0 1.53042,0.469669 2.85741,1.043709 1.32699,0.57404 5.567869,2.351585 9.424171,3.9501 3.8563,1.598514 9.749891,4.055185 13.09687,5.459268 3.346979,1.404085 6.799789,2.824689 7.672919,3.156902 0.87312,0.332211 2.123281,0.84709 2.77812,1.144175 2.045451,0.927965 8.71565,3.746508 12.170841,5.142873 1.819011,0.735129 4.91463,2.025314 6.879159,2.867078 6.37785,2.732778 10.113761,4.223395 10.58505,4.223395 0.45819,0 1.986841,-0.627999 5.28995,-2.173221 4.389252,-2.053312 6.741219,-3.125028 10.583339,-4.822465 1.52796,-0.675053 3.01625,-1.338154 3.30729,-1.473557 0.29104,-0.135406 1.60073,-0.712129 2.91041,-1.28161 1.30969,-0.569484 3.21469,-1.418844 4.23334,-1.887466 1.80572,-0.83071 6.18798,-2.770598 10.18646,-4.50922 1.69373,-0.73647 4.32799,-1.957972 8.79912,-4.080143 1.80997,-0.859084 1.80144,-0.899523 1.72189,8.158568 l -0.07,7.968073 -1.71979,0.85227 c -0.94589,0.468744 -3.96232,1.816722 -6.70318,2.995496 -4.90779,2.110714 -6.57146,2.851309 -10.49474,4.671825 -1.09141,0.506439 -3.47266,1.579081 -5.29167,2.383639 -1.81901,0.804561 -4.61698,2.051865 -6.21771,2.771791 -1.60072,0.719931 -3.2676,1.467101 -3.70416,1.660401 -2.16429,0.958252 -3.407368,1.51036 -4.431769,1.968352 -0.618469,0.2765 -2.434169,1.058748 -4.034898,1.738328 -1.600732,0.67958 -3.17831,1.408602 -3.505732,1.620041 -0.690499,0.4459 -0.82577,1.814679 -0.202949,2.05368 0.2158,0.0828 1.43619,-0.332711 2.711979,-0.923369 1.275792,-0.590662 3.925531,-1.787682 5.88831,-2.660042 1.962779,-0.87236 4.038969,-1.81333 4.613759,-2.091028 0.57479,-0.277712 1.27222,-0.504931 1.54986,-0.504931 0.27763,0 0.82082,-0.164082 1.20707,-0.364641 0.38626,-0.200549 0.99994,-0.486069 1.36374,-0.634479 1.24008,-0.505881 2.77677,-1.174602 3.54638,-1.543272 0.42254,-0.202412 0.98106,-0.36802 1.24116,-0.36802 0.26009,0 0.54648,-0.119065 0.63642,-0.264583 0.0899,-0.145521 0.39462,-0.264586 0.67708,-0.264586 0.28245,0 0.51355,-0.09 0.51355,-0.199996 0,-0.109995 0.38695,-0.353806 0.85989,-0.541795 0.79794,-0.31718 3.70379,-1.659639 4.75891,-2.19855 0.25269,-0.129061 0.50113,-0.234659 0.55209,-0.234659 0.051,0 0.12001,3.552071 0.15344,7.893492 l 0.0608,7.893489 -1.6712,0.736179 c -0.91916,0.40489 -2.56417,1.151309 -3.65557,1.658709 -1.09141,0.5074 -3.05594,1.39722 -4.36563,1.97738 -1.30969,0.58015 -2.88073,1.28228 -3.49121,1.56029 -0.61048,0.278 -1.25765,0.50546 -1.43815,0.50546 -0.18051,0 -0.574,0.22669 -0.87442,0.50376 -0.30042,0.27707 -2.21309,1.24387 -4.25038,2.14844 -10.624488,4.717333 -10.980207,4.906383 -10.980207,5.835353 0,0.44231 0.167198,0.85363 0.380219,0.93538 0.209119,0.0803 2.97732,-1.01528 6.15156,-2.43451 3.174241,-1.41922 6.485718,-2.836103 7.358838,-3.148633 0.87313,-0.31252 2.00422,-0.82763 2.51354,-1.14468 0.50933,-0.31706 1.00352,-0.57691 1.09821,-0.57745 0.0947,-5.3e-4 1.22579,-0.49292 2.51354,-1.09416 1.28776,-0.60125 4.85375,-2.199 7.92443,-3.55056 5.42662,-2.38853 9.38825,-4.174589 13.73154,-6.190719 4.17817,-1.939488 4.50059,-2.073698 4.69635,-1.954818 0.10914,0.0663 0.19844,3.750389 0.19844,8.186927 v 8.066423 l -2.3151,1.06352 c -2.70203,1.24125 -3.23219,1.47685 -5.88698,2.61615 -2.65995,1.1415 -3.18516,1.37495 -5.91326,2.6284 -1.28776,0.59167 -2.37568,1.07576 -2.41761,1.07576 -0.0419,0 -1.31002,0.5792 -2.818,1.2871 -1.50797,0.7079 -3.63473,1.6729 -4.72614,2.14443 -1.09141,0.47153 -2.85819,1.26156 -3.92619,1.75561 -1.06799,0.49406 -2.12118,0.89828 -2.3404,0.89828 -0.21923,0 -0.71463,0.21967 -1.1009,0.48815 -0.38626,0.26848 -3.79793,1.82822 -7.581467,3.4661 -7.727691,3.34529 -8.424072,3.82952 -7.440912,5.17406 0.401471,0.54904 0.410401,0.54609 5.678562,-1.88297 1.067998,-0.49244 1.986258,-0.89534 2.04058,-0.89534 0.0543,0 1.60573,-0.71437 3.447587,-1.5875 1.84185,-0.87312 3.54892,-1.5875 3.79348,-1.5875 0.24456,0 0.55777,-0.10861 0.69602,-0.24136 0.13824,-0.13275 2.27541,-1.13233 4.74927,-2.22128 2.47385,-1.08896 5.52359,-2.46231 6.77721,-3.0519 1.25361,-0.58959 2.57783,-1.14691 2.9427,-1.23849 l 0.66341,-0.16651 0.0476,7.91389 c 0.0374,6.22692 -0.0258,7.97274 -0.29687,8.18992 -0.18946,0.15181 -1.29696,0.69348 -2.46113,1.2037 -2.80864,1.23095 -4.63625,2.06954 -8.57264,3.93345 -1.80454,0.85448 -3.43484,1.55358 -3.6229,1.55358 -0.18806,0 -0.73726,0.23326 -1.22044,0.51834 -0.48319,0.2851 -1.71039,0.8647 -2.72711,1.28802 -1.01672,0.42332 -2.682008,1.15278 -3.700657,1.62102 -1.018651,0.46824 -2.625992,1.20437 -3.57188,1.63587 -0.94588,0.43148 -1.926532,0.89751 -2.179222,1.03564 -0.25268,0.13812 -0.598628,0.25111 -0.768768,0.25111 -0.559652,0 -2.079091,1.33971 -2.079091,1.83315 0,0.69769 0.664009,1.15183 1.376371,0.94134 0.334399,-0.0988 1.977228,-0.81494 3.65071,-1.59141 1.673489,-0.77647 4.88818,-2.21001 7.143747,-3.18564 4.45329,-1.92624 5.96101,-2.60007 8.99584,-4.02043 1.0914,-0.5108 2.75828,-1.282 3.70416,-1.71376 0.94589,-0.43176 2.73183,-1.25996 3.96875,-1.84043 1.23693,-0.58047 2.83468,-1.28867 3.55056,-1.57375 0.71588,-0.2851 1.78744,-0.73819 2.38125,-1.00689 0.59381,-0.26869 3.22278,-1.4611 5.84216,-2.64978 2.61938,-1.18867 5.08992,-2.22764 5.4901,-2.30883 l 0.72761,-0.14763 v 7.77942 c 0,6.61275 -0.0618,7.86758 -0.41188,8.36744 -0.22653,0.32342 -0.56544,0.58803 -0.7531,0.58803 -0.18767,0 -0.68694,0.16562 -1.10948,0.36802 -0.42253,0.20242 -1.21474,0.55961 -1.76045,0.79375 -0.5457,0.23416 -1.38594,0.59902 -1.86719,0.81081 -0.48126,0.21179 -2.23743,0.97104 -3.9026,1.6872 -1.66518,0.71618 -3.71221,1.61447 -4.54895,1.99619 -0.83675,0.38172 -2.20597,0.9975 -3.04271,1.3684 -0.83675,0.37091 -1.99761,0.89927 -2.57969,1.17413 -0.58208,0.27487 -1.47505,0.67664 -1.98438,0.89283 -0.50932,0.21618 -1.84927,0.81892 -2.97768,1.33941 -1.1284,0.5205 -2.10768,0.94636 -2.17618,0.94636 -0.1776,0 -4.10349,1.80216 -10.158808,4.66336 -1.655249,0.78213 -3.095479,1.42204 -3.2005,1.42204 -0.105021,0 -0.53666,0.16672 -0.959199,0.37048 -2.546271,1.2279 -4.67468,2.00908 -5.44281,1.99766 -0.484931,-0.007 -1.9851,-0.4657 -3.333711,-1.01887 z m 52.064328,-29.99041 0.003,-7.47448 5.81177,-2.97657 c 3.19648,-1.63711 5.93359,-2.97656 6.08249,-2.97656 0.42541,0 0.36674,14.67633 -0.06,15.01209 -0.44655,0.35132 -11.3959,5.89 -11.64388,5.89 -0.10793,0 -0.19491,-3.36351 -0.1933,-7.47448 z m -7.41127,-15.37959 c 0,-5.0865 0.081,-6.78173 0.33425,-6.99187 0.18384,-0.15258 0.89821,-0.41941 1.5875,-0.59298 0.68929,-0.17356 1.25325,-0.40463 1.25325,-0.51347 0,-0.23027 2.54379,-1.32678 3.078,-1.32678 0.19887,0 0.36159,-0.0951 0.36159,-0.21143 0,-0.24788 1.55721,-0.84691 2.2016,-0.84691 0.24433,0 0.44423,-0.11906 0.44423,-0.26458 0,-0.14552 0.1786,-0.26458 0.39688,-0.26458 0.21828,0 0.39687,-0.11906 0.39687,-0.26459 0,-0.14552 0.18278,-0.26458 0.40619,-0.26458 0.2234,0 0.70336,-0.19472 1.06659,-0.432713 0.36322,-0.238 0.70094,-0.38683 0.75048,-0.33073 0.16634,0.18833 0.4096,12.924823 0.25457,13.328823 -0.0843,0.21956 -0.25653,0.3992 -0.38284,0.3992 -0.12631,0 -1.00952,0.35719 -1.9627,0.79375 -0.95317,0.43658 -1.77777,0.79375 -1.83243,0.79375 -0.15357,0 -4.59588,2.04758 -6.34067,2.92258 -0.85719,0.42988 -1.66086,0.78159 -1.78594,0.78159 -0.12508,0 -0.22742,-3.02151 -0.22742,-6.71448 z m 21.69584,-13.789403 v -6.48097 l 5.03986,-2.522577 c 2.77193,-1.387422 5.15318,-2.452553 5.29167,-2.366962 0.29678,0.183422 0.34195,12.008509 0.0476,12.471129 -0.10784,0.1695 -0.96922,0.71775 -1.91418,1.218333 -5.00303,2.65029 -7.9857,4.16202 -8.21175,4.16202 -0.15436,0 -0.25323,-2.53046 -0.25323,-6.480973 z m 12.06685,-16.162548 c -0.23277,-0.606581 -0.18966,-7.857397 0.0489,-8.232737 0.28699,-0.451459 6.83004,-3.800129 7.03151,-3.598662 0.23474,0.234741 0.20195,8.347858 -0.0352,8.711539 -0.16427,0.251909 -6.45843,3.538381 -6.7766,3.538381 -0.0594,0 -0.18032,-0.18833 -0.26865,-0.418521 z m -12.00541,-13.664726 0.0709,-6.410325 4.7625,-2.434579 c 2.61938,-1.339022 4.91133,-2.442967 5.09323,-2.453214 0.25569,-0.01442 0.33073,1.384874 0.33073,6.166675 0,4.62888 -0.0832,6.252771 -0.33073,6.453394 -0.42271,0.342651 -9.58013,5.088374 -9.8186,5.088374 -0.0983,0 -0.14694,-2.884644 -0.10798,-6.410325 z M 81.616271,61.975732 c 0.191,-0.07643 0.4192,-0.06703 0.507121,0.02088 0.0879,0.08792 -0.0684,0.150452 -0.347271,0.138964 -0.308218,-0.0127 -0.370919,-0.07539 -0.15985,-0.159851 z m 87.891279,-4.398899 c 0,-2.418109 0.10361,-3.652033 0.33073,-3.938574 0.1819,-0.229505 1.5632,-1.043411 3.06955,-1.808689 2.03854,-1.035648 2.79146,-1.306248 2.94469,-1.058315 0.16027,0.259315 0.18486,5.421421 0.0337,7.066568 -0.0307,0.334137 -5.43988,3.260318 -6.02684,3.260318 -0.27504,0 -0.35179,-0.768205 -0.35179,-3.521308 z m -91.066279,2.811399 c 0.191,-0.07643 0.4192,-0.06703 0.507121,0.02088 0.0879,0.08792 -0.0683,0.150452 -0.347271,0.138964 -0.308218,-0.0127 -0.370919,-0.07539 -0.15985,-0.159851 z m -1.058328,-0.529164 c 0.190989,-0.07643 0.419198,-0.06703 0.507119,0.02087 0.0879,0.08792 -0.0684,0.150453 -0.347271,0.138968 -0.308229,-0.0127 -0.37092,-0.07539 -0.159848,-0.159854 z m -2.645841,-1.058336 c 0.191,-0.07643 0.4192,-0.06703 0.507118,0.02088 0.0879,0.08792 -0.0684,0.150452 -0.347257,0.138964 -0.308232,-0.0127 -0.370922,-0.07539 -0.159861,-0.159851 z m -2.34935,-0.700024 c -0.664591,-0.315942 -1.736151,-0.800698 -2.38125,-1.077227 -0.645101,-0.276532 -2.06588,-0.913257 -3.157291,-1.414944 -1.091398,-0.50169 -2.520148,-1.125993 -3.175,-1.387343 -0.654839,-0.26135 -2.362481,-1.023607 -3.79476,-1.69391 -1.43228,-0.670298 -2.649001,-1.218729 -2.70382,-1.218729 -0.110191,0 -6.478709,-2.801088 -8.97954,-3.949507 -1.348089,-0.619059 -11.086589,-4.905678 -12.7,-5.590184 -0.291039,-0.123478 -1.58279,-0.706466 -2.870538,-1.295532 -1.287762,-0.589063 -2.501552,-1.071025 -2.697322,-1.071025 -0.19577,0 -1.28528,-0.427758 -2.42113,-0.950569 -1.13585,-0.522814 -4.26783,-1.901068 -6.95997,-3.06279 -2.69213,-1.161722 -5.48371,-2.40084 -6.20351,-2.753597 -0.7198,-0.352758 -1.52347,-0.641378 -1.78594,-0.641378 -0.26247,0 -0.47722,-0.119062 -0.47722,-0.264583 0,-0.145521 -0.16401,-0.264583 -0.36447,-0.264583 -0.6717,0 -0.98886,-0.729781 -0.90687,-2.086683 l 0.0807,-1.335888 1.72053,0.85139 c 0.94629,0.468264 2.6727,1.287669 3.83646,1.8209 2.02246,0.926684 14.76553,7.090973 16.89145,8.171012 0.559461,0.284224 1.168151,0.516769 1.352661,0.516769 0.184499,0 2.881918,1.233551 5.99427,2.741226 3.112339,1.507675 6.49224,3.129714 7.510881,3.604535 1.018648,0.474818 3.042708,1.460009 4.497919,2.189309 1.455208,0.7293 5.205669,2.543175 8.33437,4.030832 8.596529,4.087545 12.964591,6.287714 12.964591,6.53021 0,0.310756 -0.240091,0.251272 -1.605222,-0.397711 z m -0.125021,-1.660927 c -1.012899,-0.524809 -2.55602,-1.343269 -3.42914,-1.818799 -2.877788,-1.567339 -5.77447,-3.101742 -9.12813,-4.835263 -3.995201,-2.065144 -7.52226,-3.940123 -8.598951,-4.571202 -1.184719,-0.694386 -11.51582,-5.886529 -12.575629,-6.320181 -0.504968,-0.206624 -0.97766,-0.445474 -1.05042,-0.530784 -0.0728,-0.08531 -0.846659,-0.52048 -1.719789,-0.967054 -5.070181,-2.593224 -10.089601,-5.220604 -10.318751,-5.401283 -0.14552,-0.114739 -1.81239,-1.002598 -3.70416,-1.973018 -1.89178,-0.970422 -3.5527,-1.876261 -3.69094,-2.012979 -0.13825,-0.136718 -0.46567,-0.248578 -0.72761,-0.248578 -0.41273,0 -0.47625,-0.244209 -0.47625,-1.83113 v -1.831131 l 1.25677,0.681178 c 0.69123,0.374647 1.57167,0.843939 1.95654,1.04287 0.38487,0.198931 0.84593,0.537816 1.02458,0.753078 0.17865,0.215261 0.43762,0.391385 0.57549,0.391385 0.13786,0 0.74836,0.337363 1.35666,0.749696 0.6083,0.412333 1.64179,1.037412 2.29663,1.389063 0.65484,0.351651 1.25016,0.701811 1.32292,0.778132 0.0728,0.07632 0.7276,0.433509 1.45521,0.79375 0.7276,0.360241 1.38244,0.714515 1.4552,0.787276 0.13436,0.134355 0.46395,0.326338 2.624989,1.529043 0.666311,0.370829 2.402102,1.385837 3.85731,2.255572 1.455201,0.869736 3.241141,1.903408 3.96875,2.297044 0.727602,0.393637 1.773021,0.972235 2.323151,1.285772 0.550129,0.313539 1.1269,0.570069 1.281731,0.570069 0.154819,0 1.84784,0.935378 3.762259,2.078616 4.37103,2.610253 9.58392,5.612113 10.624521,6.11816 0.43656,0.212302 1.2706,0.702715 1.853409,1.089806 1.140632,0.757592 1.14051,0.757518 6.480971,3.805499 6.064171,3.461028 8.3722,4.899586 7.860909,4.899586 -0.0421,0 -0.90532,-0.429387 -1.91823,-0.954193 z m 90.954409,-9.954229 0.0727,-4.293839 1.85208,-1.02866 c 2.42897,-1.34906 4.94327,-2.347275 5.21866,-2.071883 0.12077,0.120769 0.1866,2.055884 0.14629,4.300254 l -0.0733,4.080675 -3.175,1.642835 c -1.74625,0.90356 -3.38631,1.647701 -3.64457,1.653646 -0.43378,0.01 -0.46404,-0.316532 -0.39688,-4.283028 z m -13.18822,-2.175783 c -0.0811,-0.211315 -0.0838,-0.487116 -0.006,-0.612894 0.0777,-0.125778 0.15972,-2.423433 0.1822,-5.1059 0.0225,-2.682465 0.10018,-5.188693 0.17268,-5.569396 3.58773,-1.123156 0,0 9.50345,-3.043162 l 0.39245,9.345494 c -0.0145,0.175165 -1.80523,1.214959 -3.97926,2.310654 -2.17403,1.095698 -4.3803,2.232303 -4.90284,2.525792 -1.13367,0.636746 -1.17388,0.641157 -1.36259,0.149413 z m 19.65346,-14.366318 c -0.0665,-0.109139 -0.0563,-1.778914 0.0227,-3.71061 l 0.14365,-3.512176 2.54141,-1.31534 c 3.84747,-1.99132 3.46744,-2.232216 3.46744,2.197971 v 3.815814 l -2.80009,1.36139 c -2.88515,1.402745 -3.16921,1.500624 -3.37508,1.162951 z"
       id="path861"
       inkscape:connector-curvature="0"
       sodipodi:nodetypes="csscccscscsccscsccscsscssssccssscccsssccccscccccsccsscsccsscsscssccccccssssccccccsccsccccscscscsccscscccccccccscscccssccccccsccscscscccccccccscscccccccscsccscssssssssscccscscssccsccssccccccsccccscscscccccccccsccscccccccccccccccccccccsscccscccsssccssssccssscccscccccsccssccssssscccccccssccsscccccccscccccccccccccccccscscc"
       inkscape:export-filename="/home/gonzalo/path861.png"
       inkscape:export-xdpi="96"
       inkscape:export-ydpi="96" />
  </g>
</svg>
